<svg width="256" height="32" viewBox="0 0 256 32" fill="none" xmlns="http://www.w3.org/2000/svg">
<g id="Logo_new" clip-path="url(#clip0_4728_14030)">
<path id="Vector" d="M97.0716 15.0263C104.04 14.5126 107.959 12.345 107.959 9.55089C107.959 8.19051 107.089 7.08979 105.417 6.24308H110.495V2.56835H97.0716V0H90.5381V2.574H77.1143V6.24872H82.1928C80.526 7.09543 79.6508 8.19615 79.6508 9.55654C79.6508 12.3507 83.5698 14.5183 90.5381 15.0319V16.5391H76.752V20.3944H82.2653C79.8682 21.4613 78.5637 23.0023 78.5637 24.9497C78.5637 29.0986 84.4394 32.0056 93.8049 32.0056C103.17 32.0056 109.046 29.1043 109.046 24.9497C109.046 23.0023 107.742 21.4613 105.344 20.3944H110.858V16.5391H97.0716V15.0319V15.0263ZM87.5278 10.804C86.5857 10.3637 86.1843 9.73717 86.1843 9.04286C86.1843 8.34856 86.5857 7.722 87.5278 7.28171C88.9047 6.62127 91.3018 6.25437 93.8049 6.25437C96.3079 6.25437 98.705 6.62127 100.082 7.28171C101.024 7.722 101.425 8.34856 101.425 9.04286C101.425 9.73717 101.024 10.3637 100.082 10.804C98.705 11.504 96.3469 11.8314 93.8049 11.8314C91.2628 11.8314 88.9047 11.4983 87.5278 10.804ZM100.121 21.5685C101.715 22.2685 102.518 23.2563 102.518 24.4361C102.518 25.6158 101.754 26.6036 100.121 27.3036C98.5991 27.964 96.2745 28.3309 93.8049 28.3309C91.3353 28.3309 89.0162 27.964 87.4888 27.3036C85.8554 26.6036 85.0917 25.6158 85.0917 24.4361C85.0917 23.2563 85.8888 22.2685 87.4888 21.5685C89.0107 20.9081 91.3353 20.5412 93.8049 20.5412C96.2745 20.5412 98.5935 20.9081 100.121 21.5685Z" fill="#0013DE"/>
<path id="Vector_2" d="M187.426 25.0241H210.789V31.2671H217.178V20.9824H187.426V25.0241Z" fill="#0013DE"/>
<path id="Vector_3" d="M217.178 1.4668H210.789V19.5074H217.178V14.8787H221.169V10.8371H217.178V1.4668Z" fill="#0013DE"/>
<path id="Vector_4" d="M253.102 27.2237V1.4668H222.982V5.50843H246.858V27.2237H242.649V10.8371H236.846V27.2237H233.217V10.8371H227.408V27.2237H221.895V31.2654H256V27.2237H253.102Z" fill="#0013DE"/>
<path id="Vector_5" d="M196.786 19.1074C202.734 19.1074 206.764 15.6924 206.764 11.2104C206.764 9.30252 206.001 7.57523 204.696 6.24872H208.325V2.574H199.98V0H193.591V2.574H185.246V6.24872H188.875C187.571 7.56959 186.807 9.29688 186.807 11.2104C186.807 15.6924 190.832 19.1074 196.786 19.1074ZM196.786 6.13583C198.96 6.13583 200.705 7.97036 200.705 10.804C200.705 13.6377 199.071 15.5061 196.786 15.5061C194.5 15.5061 192.867 13.5982 192.867 10.804C192.867 8.00988 194.573 6.13583 196.786 6.13583Z" fill="#0013DE"/>
<path id="Vector_6" d="M115.941 24.2838H139.238V31.2664H145.693V20.2422H115.941V24.2838Z" fill="#0013DE"/>
<path id="Vector_7" d="M176.354 11.7571H173.561V1.4668H167.574V25.5698H156.837V5.28828H164.998V1.4668H150.777V29.4308H167.574V31.2654H173.561V15.7988H176.354V31.2654H182.341V1.4668H176.354V11.7571Z" fill="#0013DE"/>
<path id="Vector_8" d="M145.699 1.4668H139.238V18.7736H145.699V1.4668Z" fill="#0013DE"/>
<path id="Vector_9" d="M124.471 18.0737C130.458 18.0737 135.174 14.5852 135.174 9.43722C135.174 4.28923 130.458 0.800781 124.471 0.800781C118.484 0.800781 113.768 4.28923 113.768 9.43722C113.768 14.5852 118.45 18.0737 124.471 18.0737ZM124.471 4.40777C126.868 4.40777 128.786 6.38907 128.786 9.40336C128.786 12.4176 126.974 14.4723 124.471 14.4723C121.968 14.4723 120.151 12.4176 120.151 9.40336C120.151 6.38907 122.04 4.40777 124.471 4.40777Z" fill="#0013DE"/>
<path id="Vector_10" d="M47.4074 6.85742H13.5469V22.8602H47.4074V6.85742Z" fill="#0013DE"/>
<path id="Vector_11" d="M49.6652 25.1407H13.5469V31.9991H63.2116V6.85742H49.6652V25.1407Z" fill="#0013DE"/>
<path id="Vector_12" d="M2.25774 22.8555V2.28612H47.407V6.85835H49.6647V0H0V25.1416H13.5464V22.8555H2.25774Z" fill="#0013DE"/>
</g>
<defs>
<clipPath id="clip0_4728_14030">
<rect width="256" height="32" fill="white"/>
</clipPath>
</defs>
</svg>
