<?xml version="1.0" encoding="UTF-8"?>
<svg id="_레이어_1" data-name="레이어 1" xmlns="http://www.w3.org/2000/svg" viewBox="0 0 173.39 150.16">
  <defs>
    <style>
      .cls-1 {
        fill: #fff;
      }
    </style>
  </defs>
  <rect class="cls-1" x="50.57" width="21.68" height="21.68"/>
  <rect class="cls-1" x="75.85" width="21.68" height="21.68"/>
  <rect class="cls-1" x="101.14" width="21.68" height="21.68"/>
  <rect class="cls-1" x="126.42" width="21.68" height="21.68"/>
  <rect class="cls-1" x="151.71" width="21.68" height="21.68"/>
  <rect class="cls-1" x="50.57" y="25.68" width="21.68" height="21.68"/>
  <rect class="cls-1" x="50.57" y="51.35" width="21.68" height="21.68"/>
  <rect class="cls-1" x="50.57" y="77.03" width="21.68" height="21.68"/>
  <rect class="cls-1" x="75.85" y="25.68" width="21.68" height="21.68"/>
  <rect class="cls-1" x="101.14" y="25.68" width="21.68" height="21.68"/>
  <rect class="cls-1" x="126.42" y="25.68" width="21.68" height="21.68"/>
  <rect class="cls-1" x="151.71" y="25.68" width="21.68" height="21.68"/>
  <rect class="cls-1" x="151.71" y="51.35" width="21.68" height="21.68"/>
  <rect class="cls-1" x="151.71" y="77.03" width="21.68" height="21.68"/>
  <rect class="cls-1" x="50.57" y="102.81" width="21.68" height="21.68"/>
  <rect class="cls-1" x="50.57" y="128.48" width="21.68" height="21.68"/>
  <rect class="cls-1" x="151.71" y="102.81" width="21.68" height="21.68"/>
  <rect class="cls-1" x="151.71" y="128.48" width="21.68" height="21.68"/>
  <rect class="cls-1" x="25.28" y="102.81" width="21.68" height="21.68"/>
  <rect class="cls-1" x="25.28" y="128.48" width="21.68" height="21.68"/>
  <rect class="cls-1" x="126.42" y="102.81" width="21.68" height="21.68"/>
  <rect class="cls-1" x="126.42" y="128.48" width="21.68" height="21.68"/>
  <rect class="cls-1" y="102.81" width="21.68" height="21.68"/>
  <rect class="cls-1" y="128.48" width="21.68" height="21.68"/>
  <rect class="cls-1" x="101.14" y="102.81" width="21.68" height="21.68"/>
  <rect class="cls-1" x="101.14" y="128.48" width="21.68" height="21.68"/>
</svg>